<svg width="12" height="12" viewBox="0 0 12 12" fill="none" xmlns="http://www.w3.org/2000/svg">
<path d="M1.00024 8.96305C1.00024 8.65936 1.07764 8.36069 1.22512 8.09522L4.31808 2.5279C4.59224 2.03441 5.06928 1.68619 5.62285 1.57548V1.57548C5.87198 1.52565 6.12851 1.52565 6.37764 1.57548V1.57548C6.93121 1.68619 7.40825 2.03441 7.68241 2.5279L10.7754 8.09522C10.9229 8.36069 11.0002 8.65936 11.0002 8.96305V8.96305C11.0002 9.94995 10.2002 10.75 9.21329 10.75H2.7872C1.80029 10.75 1.00024 9.94995 1.00024 8.96305V8.96305Z" fill="#F76464" stroke="#F76464" stroke-width="0.75"/>
<path d="M6.00024 4.5L6.00024 6.5" stroke="white" stroke-width="0.75" stroke-linecap="round" stroke-linejoin="round"/>
<path d="M6.00024 8L6.00024 8.25" stroke="white" stroke-width="0.75" stroke-linecap="round" stroke-linejoin="round"/>
</svg>
