<svg width="24" height="24" viewBox="0 0 24 24" fill="none" xmlns="http://www.w3.org/2000/svg">
<rect width="24" height="24" rx="12" fill="#E1F1FC"/>
<path d="M6.66638 8.00008C6.66638 6.52732 7.86029 5.33341 9.33305 5.33341H11.9997H13.3752C13.7709 5.33341 14.1462 5.50918 14.3995 5.81317L17.024 8.96257C17.2237 9.20219 17.333 9.50423 17.333 9.81615V12.0001V16.0001C17.333 17.4728 16.1391 18.6667 14.6664 18.6667H9.33305C7.86029 18.6667 6.66638 17.4728 6.66638 16.0001V8.00008Z" fill="#068EE9" stroke="#068EE9"/>
<path d="M13.9998 5.66675V8.00008C13.9998 8.73646 14.5967 9.33341 15.3331 9.33341H16.9998" stroke="white" stroke-linecap="round"/>
<path d="M9.33301 12.0001H14.6663" stroke="white" stroke-linecap="round"/>
<path d="M9.33301 15.3334H11.9997" stroke="white" stroke-linecap="round"/>
</svg>
