<svg width="20" height="20" viewBox="0 0 20 20" fill="none" xmlns="http://www.w3.org/2000/svg">
<path d="M17.3329 9.34632L17.8812 9.04644L17.3329 9.34632ZM17.3328 10.6538L17.8812 10.9537L17.3328 10.6538ZM2.66715 9.3462L3.2155 9.64609L2.66715 9.3462ZM2.66714 10.6537L2.11878 10.9536L2.11878 10.9536L2.66714 10.6537ZM16.2697 6.92422C16.0225 6.68325 15.6268 6.68825 15.3858 6.93539C15.1449 7.18253 15.1499 7.57823 15.397 7.8192L16.2697 6.92422ZM8.0719 14.133C7.73754 14.0473 7.39698 14.2488 7.31125 14.5832C7.22552 14.9176 7.42707 15.2581 7.76143 15.3439L8.0719 14.133ZM12.17 5.28428L12.0082 5.88799L12.17 5.28428ZM5.89387 13.9241L5.58645 14.4682L6.25396 13.4132L5.89387 13.9241ZM3.2155 9.64609C4.52628 7.24932 7.07325 5.625 9.99997 5.625V4.375C6.59901 4.375 3.64039 6.26405 2.1188 9.04631L3.2155 9.64609ZM16.7845 10.3539C15.4737 12.7507 12.9268 14.375 10 14.375V15.625C13.401 15.625 16.3596 13.7359 17.8812 10.9537L16.7845 10.3539ZM16.7845 9.6462C16.9052 9.86685 16.9052 10.1333 16.7845 10.3539L17.8812 10.9537C18.2063 10.3593 18.2063 9.64082 17.8812 9.04644L16.7845 9.6462ZM2.1188 9.04631C1.79374 9.64068 1.79373 10.3592 2.11878 10.9536L3.2155 10.3538C3.09483 10.1332 3.09483 9.86674 3.2155 9.64609L2.1188 9.04631ZM15.397 7.8192C15.9456 8.35406 16.4145 8.96956 16.7845 9.6462L17.8812 9.04644C17.451 8.25983 16.9063 7.54503 16.2697 6.92422L15.397 7.8192ZM10 14.375C9.33349 14.375 8.68755 14.2909 8.0719 14.133L7.76143 15.3439C8.47769 15.5275 9.22791 15.625 10 15.625V14.375ZM9.99997 5.625C10.6955 5.625 11.3686 5.71659 12.0082 5.88799L12.3318 4.68058C11.5875 4.48116 10.8057 4.375 9.99997 4.375V5.625ZM4.94163 12.492C4.24607 11.8898 3.65959 11.1659 3.2155 10.3538L2.11878 10.9536C2.63502 11.8975 3.3162 12.7381 4.12347 13.437L4.94163 12.492ZM6.20129 13.3799C5.75151 13.1258 5.32967 12.8279 4.94163 12.492L4.12347 13.437C4.57394 13.827 5.06383 14.173 5.58645 14.4682L6.20129 13.3799ZM4.17246 13.4753L5.53378 14.4349L6.25396 13.4132L4.89264 12.4537L4.17246 13.4753ZM12.0082 5.88799C12.6057 6.04809 13.1747 6.27799 13.7059 6.56849L14.3057 5.47179C13.6883 5.13417 13.0267 4.8668 12.3318 4.68058L12.0082 5.88799Z" fill="#9E9E9E"/>
<path d="M16.2203 3.72028L3.72034 16.2203" stroke="#9E9E9E" stroke-width="1.25" stroke-linecap="round" stroke-linejoin="round"/>
<path d="M7.5 10C7.5 8.61929 8.61929 7.5 10 7.5" stroke="#9E9E9E" stroke-width="1.25" stroke-linecap="round"/>
</svg>
