<svg width="16" height="16" viewBox="0 0 16 16" fill="none" xmlns="http://www.w3.org/2000/svg">
<path d="M1.33334 2.66668C1.33334 1.9303 1.9303 1.33334 2.66668 1.33334H13.3333C14.0697 1.33334 14.6667 1.9303 14.6667 2.66668V3.21168C14.6667 3.71827 14.4744 4.20598 14.1288 4.57632L10.3586 8.6158C10.1282 8.8627 10 9.18784 10 9.52556V12.2547C10 12.5072 9.85734 12.738 9.63149 12.8509L6.96482 14.1843C6.52155 14.4059 6.00001 14.0836 6.00001 13.588V9.52556C6.00001 9.18784 5.87185 8.8627 5.64142 8.6158L1.87123 4.57632C1.52558 4.20598 1.33334 3.71827 1.33334 3.21168V2.66668Z" stroke="#9E9E9E"/>
</svg>
