<svg width="24" height="24" viewBox="0 0 24 24" fill="none" xmlns="http://www.w3.org/2000/svg">
<rect width="24" height="24" rx="12" fill="#FEEFEF"/>
<path fill-rule="evenodd" clip-rule="evenodd" d="M8.66667 5.33333H12C13.4728 5.33333 14.6667 6.52724 14.6667 8V11.5L10 11.5C9.72386 11.5 9.5 11.7239 9.5 12C9.5 12.2761 9.72386 12.5 10 12.5L14.6667 12.5V16C14.6667 17.4728 13.4728 18.6667 12 18.6667H8.66667C7.19391 18.6667 6 17.4728 6 16V14.6667V9.33333V8C6 6.52724 7.19391 5.33333 8.66667 5.33333ZM14.6667 12.5L17.4596 12.5L16.3131 13.6464C16.1179 13.8417 16.1179 14.1583 16.3131 14.3536C16.5084 14.5488 16.825 14.5488 17.0202 14.3536L18.5488 12.825C19.0044 12.3693 19.0044 11.6307 18.5488 11.175L17.0202 9.64645C16.825 9.45118 16.5084 9.45118 16.3131 9.64645C16.1179 9.84171 16.1179 10.1583 16.3131 10.3536L17.4596 11.5L14.6667 11.5V12.5Z" fill="#F76464"/>
</svg>
