<svg width="16" height="16" viewBox="0 0 16 16" fill="none" xmlns="http://www.w3.org/2000/svg">
<path d="M7.99998 8.66667C8.36817 8.66667 8.66665 8.36819 8.66665 8C8.66665 7.63181 8.36817 7.33334 7.99998 7.33334C7.63179 7.33334 7.33331 7.63181 7.33331 8C7.33331 8.36819 7.63179 8.66667 7.99998 8.66667Z" stroke="#9E9E9E" stroke-width="1.33333" stroke-linecap="round" stroke-linejoin="round"/>
<path d="M7.99998 3.99999C8.36817 3.99999 8.66665 3.70151 8.66665 3.33332C8.66665 2.96513 8.36817 2.66666 7.99998 2.66666C7.63179 2.66666 7.33331 2.96513 7.33331 3.33332C7.33331 3.70151 7.63179 3.99999 7.99998 3.99999Z" stroke="#9E9E9E" stroke-width="1.33333" stroke-linecap="round" stroke-linejoin="round"/>
<path d="M7.99998 13.3333C8.36817 13.3333 8.66665 13.0349 8.66665 12.6667C8.66665 12.2985 8.36817 12 7.99998 12C7.63179 12 7.33331 12.2985 7.33331 12.6667C7.33331 13.0349 7.63179 13.3333 7.99998 13.3333Z" stroke="#9E9E9E" stroke-width="1.33333" stroke-linecap="round" stroke-linejoin="round"/>
</svg>
