<svg width="24" height="24" viewBox="0 0 24 24" fill="none" xmlns="http://www.w3.org/2000/svg">
<rect width="24" height="24" rx="12" fill="#E1F1FC"/>
<path fill-rule="evenodd" clip-rule="evenodd" d="M6.16675 12.6667C6.16675 10.9178 7.58451 9.5 9.33341 9.5H14.6667C16.4156 9.5 17.8334 10.9178 17.8334 12.6667V15.3333C17.8334 17.0822 16.4156 18.5 14.6667 18.5H9.33341C7.58451 18.5 6.16675 17.0822 6.16675 15.3333V12.6667ZM12.5001 13.3333C12.5001 13.0572 12.2763 12.8333 12.0001 12.8333C11.724 12.8333 11.5001 13.0572 11.5001 13.3333V14.6667C11.5001 14.9428 11.724 15.1667 12.0001 15.1667C12.2763 15.1667 12.5001 14.9428 12.5001 14.6667V13.3333Z" fill="#068EE9"/>
<path d="M14.6668 10V8.66667C14.6668 7.19391 13.4729 6 12.0002 6V6C10.5274 6 9.3335 7.19391 9.3335 8.66667L9.3335 10" stroke="#068EE9"/>
</svg>
