<svg width="32" height="32" viewBox="0 0 32 32" fill="none" xmlns="http://www.w3.org/2000/svg">
<rect width="32" height="32" rx="16" fill="#E1F1FC"/>
<path d="M18.4 17.2H12.4V18.4H18.4V17.2ZM19.6 22H12.4V23.2H19.6V22ZM16 19.6H12.4V20.8H16V19.6ZM24.4 11.2H22V6.39996H10V11.2H7.60002C6.88002 11.2 6.40002 11.68 6.40002 12.4V18.4C6.40002 19.12 6.88002 19.6 7.60002 19.6H10V25.6H22V19.6H24.4C25.12 19.6 25.6 19.12 25.6 18.4V12.4C25.6 11.68 25.12 11.2 24.4 11.2ZM20.8 24.4H11.2V16H20.8V24.4ZM20.8 11.2H11.2V7.59996H20.8V11.2ZM23.2 14.8H22V13.6H23.2V14.8Z" fill="#068EE9"/>
</svg>
