<svg width="32" height="32" viewBox="0 0 32 32" fill="none" xmlns="http://www.w3.org/2000/svg">
<rect x="0.5" y="0.5" width="31" height="31" rx="15.5" fill="white"/>
<rect x="0.5" y="0.5" width="31" height="31" rx="15.5" stroke="#00BD95"/>
<rect x="4" y="4" width="24" height="24" rx="12" fill="#E5F8F4"/>
<path d="M17.6 16.8H13.6V17.6H17.6V16.8ZM18.4 20H13.6V20.8H18.4V20ZM16 18.4H13.6V19.2H16V18.4ZM21.6 12.8H20V9.59998H12V12.8H10.4C9.92001 12.8 9.60001 13.12 9.60001 13.6V17.6C9.60001 18.08 9.92001 18.4 10.4 18.4H12V22.4H20V18.4H21.6C22.08 18.4 22.4 18.08 22.4 17.6V13.6C22.4 13.12 22.08 12.8 21.6 12.8ZM19.2 21.6H12.8V16H19.2V21.6ZM19.2 12.8H12.8V10.4H19.2V12.8ZM20.8 15.2H20V14.4H20.8V15.2Z" fill="#00BD95"/>
</svg>
