<svg width="32" height="32" viewBox="0 0 32 32" fill="none" xmlns="http://www.w3.org/2000/svg">
<rect width="32" height="32" rx="16" fill="#E5F8F4"/>
<path fill-rule="evenodd" clip-rule="evenodd" d="M7.04306 11.8332C7.04306 9.18687 9.18836 7.04156 11.8347 7.04156H20.1681C22.8144 7.04156 24.9597 9.18687 24.9597 11.8332V20.1666C24.9597 22.8129 22.8144 24.9582 20.1681 24.9582H11.8347C9.18836 24.9582 7.04306 22.8129 7.04306 20.1666V11.8332ZM13.4757 16.0252L15.1424 17.6918C15.3864 17.9359 15.7822 17.9359 16.0263 17.6918L19.3596 14.3585C19.6037 14.1144 19.6037 13.7187 19.3596 13.4746C19.1155 13.2306 18.7198 13.2306 18.4757 13.4746L15.5843 16.366L14.3596 15.1413C14.1155 14.8972 13.7198 14.8972 13.4757 15.1413C13.2316 15.3854 13.2316 15.7811 13.4757 16.0252Z" fill="#00BD95"/>
</svg>
