<svg width="12" height="12" viewBox="0 0 12 12" fill="none" xmlns="http://www.w3.org/2000/svg">
<path fill-rule="evenodd" clip-rule="evenodd" d="M0.625732 3.49988C0.625732 1.91206 1.91291 0.624878 3.50073 0.624878H8.50073C10.0886 0.624878 11.3757 1.91206 11.3757 3.49988V8.49988C11.3757 10.0877 10.0886 11.3749 8.50073 11.3749H3.50073C1.91291 11.3749 0.625732 10.0877 0.625732 8.49988V3.49988ZM4.48531 6.01507L5.48531 7.01507C5.63175 7.16152 5.86919 7.16152 6.01564 7.01507L8.01564 5.01507C8.16208 4.86863 8.16208 4.63119 8.01564 4.48474C7.86919 4.3383 7.63175 4.3383 7.48531 4.48474L5.75047 6.21958L5.01564 5.48474C4.86919 5.3383 4.63175 5.3383 4.48531 5.48474C4.33886 5.63119 4.33886 5.86863 4.48531 6.01507Z" fill="#00BD95"/>
</svg>
