<svg width="32" height="32" viewBox="0 0 32 32" fill="none" xmlns="http://www.w3.org/2000/svg">
<rect width="32" height="32" rx="16" fill="#E5F8F4"/>
<path fill-rule="evenodd" clip-rule="evenodd" d="M7.04309 11.8333C7.04309 9.18689 9.18839 7.04159 11.8348 7.04159H20.1681C22.8145 7.04159 24.9598 9.18689 24.9598 11.8333V20.1666C24.9598 22.813 22.8145 24.9583 20.1681 24.9583H11.8348C9.18839 24.9583 7.04309 22.813 7.04309 20.1666V11.8333ZM13.4757 16.0253L15.1424 17.6919C15.3865 17.936 15.7822 17.936 16.0263 17.6919L19.3596 14.3586C19.6037 14.1145 19.6037 13.7188 19.3596 13.4747C19.1155 13.2306 18.7198 13.2306 18.4757 13.4747L15.5843 16.3661L14.3596 15.1414C14.1155 14.8973 13.7198 14.8973 13.4757 15.1414C13.2316 15.3854 13.2316 15.7812 13.4757 16.0253Z" fill="#00BD95"/>
</svg>
