<svg width="32" height="32" viewBox="0 0 32 32" fill="none" xmlns="http://www.w3.org/2000/svg">
<rect width="32" height="32" rx="16" fill="#E1F1FC"/>
<path fill-rule="evenodd" clip-rule="evenodd" d="M22.9227 21.7661C22.9681 21.7721 23.0134 21.7783 23.0588 21.7846L23.2867 21.8166C24.279 21.9559 25.1669 21.1995 25.1669 20.2149V19.4634C25.1669 18.7592 24.7162 18.131 24.041 17.8941C23.261 17.6205 22.4557 17.4423 21.6428 17.3596C22.491 17.9729 23.0171 18.966 23.0171 20.0494V20.9824C23.0171 21.2533 22.9843 21.5157 22.9227 21.7661ZM19.4845 16.3599C19.8225 16.4995 20.1939 16.5766 20.5836 16.5766C22.1513 16.5766 23.4222 15.3282 23.4222 13.7882C23.4222 12.2483 22.1513 10.9999 20.5836 10.9999C20.5371 10.9999 20.4909 11.001 20.445 11.0031C20.7301 11.6103 20.8894 12.2882 20.8894 13.0034C20.8894 14.3172 20.3518 15.5053 19.4845 16.3599Z" fill="#068EE9"/>
<path fill-rule="evenodd" clip-rule="evenodd" d="M9.39506 21.7661C9.34968 21.7721 9.30432 21.7783 9.25898 21.7846L9.03106 21.8166C8.0387 21.9559 7.15086 21.1995 7.15086 20.2149V19.4634C7.15086 18.7592 7.60155 18.131 8.27671 17.8941C9.05675 17.6205 9.86206 17.4423 10.675 17.3596C9.82675 17.9729 9.30064 18.966 9.30064 20.0494V20.9824C9.30064 21.2533 9.33343 21.5157 9.39506 21.7661ZM12.8333 16.3599C12.4952 16.4995 12.1239 16.5766 11.7342 16.5766C10.1664 16.5766 8.89551 15.3282 8.89551 13.7882C8.89551 12.2483 10.1664 10.9999 11.7342 10.9999C11.7806 10.9999 11.8268 11.001 11.8727 11.0031C11.5876 11.6103 11.4283 12.2882 11.4283 13.0034C11.4283 14.3172 11.966 15.5053 12.8333 16.3599Z" fill="#068EE9"/>
<path fill-rule="evenodd" clip-rule="evenodd" d="M19.6394 13.0034C19.6394 11.0915 18.0895 9.54153 16.1775 9.54153C14.2656 9.54153 12.7157 11.0915 12.7157 13.0034C12.7157 14.9154 14.2656 16.4653 16.1775 16.4653C18.0895 16.4653 19.6394 14.9154 19.6394 13.0034Z" fill="#068EE9"/>
<path fill-rule="evenodd" clip-rule="evenodd" d="M11.961 18.1011C14.6877 17.1273 17.6674 17.1273 20.3941 18.1011C21.2175 18.3952 21.7671 19.1751 21.7671 20.0494V20.9824C21.7671 22.2049 20.6843 23.1439 19.4741 22.9711L19.1962 22.9314C17.1939 22.6453 15.1612 22.6453 13.1589 22.9314L12.881 22.9711C11.6708 23.1439 10.588 22.2049 10.588 20.9824V20.0494C10.588 19.1751 11.1376 18.3952 11.961 18.1011Z" fill="#068EE9"/>
</svg>
