<svg width="32" height="32" viewBox="0 0 32 32" fill="none" xmlns="http://www.w3.org/2000/svg">
<rect width="32" height="32" rx="16" fill="#E1F1FC"/>
<path d="M9.33337 14.971C9.33337 13.5142 10.5143 12.3333 11.971 12.3333V12.3333C12.3931 12.3333 12.7745 12.0818 12.9408 11.6939L13.1472 11.2122C13.4624 10.4768 14.1854 10 14.9855 10H16H17.0146C17.8146 10 18.5377 10.4768 18.8529 11.2122L19.0593 11.6939C19.2256 12.0818 19.607 12.3333 20.0291 12.3333V12.3333C21.4858 12.3333 22.6667 13.5142 22.6667 14.971V18.3333C22.6667 20.1743 21.1743 21.6667 19.3334 21.6667H12.6667C10.8258 21.6667 9.33337 20.1743 9.33337 18.3333V14.971Z" stroke="#068EE9"/>
<circle cx="2" cy="2" r="2" transform="matrix(-1 0 0 1 18 14.3334)" stroke="#068EE9"/>
</svg>
